<svg width="344" height="88" viewBox="0 0 344 88" fill="none" xmlns="http://www.w3.org/2000/svg">
<rect width="88" height="88" rx="8" fill="white"/>
<path d="M25.1548 25.1818H32.0795L44.1193 54.5795H44.5625L56.6023 25.1818H63.527V63H58.098V35.6335H57.7472L46.5938 62.9446H42.0881L30.9347 35.6151H30.5838V63H25.1548V25.1818Z" fill="black"/>
<path d="M107.864 30.9091H110.932L121.486 56.25H121.741L132.295 30.9091H135.364V60H132.864V36.5199H132.636L122.821 60H120.406L110.591 36.5199H110.364V60H107.864V30.9091ZM142.601 60V38.1818H145.143V60H142.601ZM143.893 34.4318C143.373 34.4318 142.928 34.2566 142.558 33.9062C142.189 33.5464 142.004 33.1155 142.004 32.6136C142.004 32.1117 142.189 31.6856 142.558 31.3352C142.928 30.9754 143.373 30.7955 143.893 30.7955C144.414 30.7955 144.859 30.9754 145.229 31.3352C145.598 31.6856 145.783 32.1117 145.783 32.6136C145.783 33.1155 145.598 33.5464 145.229 33.9062C144.859 34.2566 144.414 34.4318 143.893 34.4318ZM159.685 60.4545C157.896 60.4545 156.328 59.9811 154.984 59.0341C153.639 58.0871 152.588 56.7661 151.83 55.071C151.082 53.3759 150.708 51.4015 150.708 49.1477C150.708 46.9034 151.082 44.9384 151.83 43.2528C152.588 41.5578 153.644 40.2415 154.998 39.304C156.352 38.357 157.929 37.8835 159.728 37.8835C161.054 37.8835 162.157 38.1203 163.038 38.5938C163.918 39.0578 164.624 39.6354 165.154 40.3267C165.684 41.018 166.096 41.6903 166.39 42.3438H166.617V30.9091H169.16V60H166.688V55.9517H166.39C166.096 56.6146 165.68 57.2964 165.14 57.9972C164.6 58.6884 163.885 59.2708 162.995 59.7443C162.114 60.2178 161.011 60.4545 159.685 60.4545ZM159.984 58.1392C161.395 58.1392 162.597 57.7557 163.592 56.9886C164.586 56.2121 165.344 55.1468 165.864 53.7926C166.395 52.429 166.66 50.8665 166.66 49.1051C166.66 47.3627 166.399 45.8239 165.879 44.4886C165.358 43.1439 164.6 42.0928 163.606 41.3352C162.612 40.5682 161.404 40.1847 159.984 40.1847C158.525 40.1847 157.294 40.5824 156.29 41.3778C155.296 42.1638 154.539 43.2292 154.018 44.5739C153.506 45.9186 153.251 47.429 153.251 49.1051C153.251 50.8002 153.511 52.3295 154.032 53.6932C154.553 55.0568 155.31 56.1411 156.305 56.946C157.308 57.7415 158.535 58.1392 159.984 58.1392ZM182.455 60.4972C181.139 60.4972 179.936 60.2415 178.847 59.7301C177.758 59.2093 176.892 58.4612 176.248 57.4858C175.604 56.5009 175.282 55.3078 175.282 53.9062C175.282 52.8267 175.486 51.9176 175.893 51.179C176.3 50.4403 176.878 49.8343 177.626 49.3608C178.374 48.8873 179.259 48.5133 180.282 48.2386C181.305 47.964 182.432 47.7509 183.663 47.5994C184.884 47.4479 185.916 47.3153 186.759 47.2017C187.612 47.0881 188.26 46.9081 188.705 46.6619C189.15 46.4157 189.373 46.018 189.373 45.4688V44.9574C189.373 43.4706 188.928 42.3011 188.038 41.4489C187.157 40.5871 185.888 40.1562 184.231 40.1562C182.659 40.1562 181.376 40.5019 180.381 41.1932C179.397 41.8845 178.705 42.6989 178.308 43.6364L175.907 42.7699C176.399 41.5767 177.081 40.625 177.952 39.9148C178.824 39.1951 179.799 38.679 180.879 38.3665C181.958 38.0445 183.052 37.8835 184.16 37.8835C184.993 37.8835 185.86 37.9924 186.759 38.2102C187.668 38.428 188.511 38.8068 189.288 39.3466C190.064 39.8769 190.694 40.6203 191.177 41.5767C191.66 42.5237 191.901 43.7263 191.901 45.1847V60H189.373V56.5483H189.217C188.914 57.1922 188.464 57.8172 187.867 58.4233C187.271 59.0294 186.522 59.5265 185.623 59.9148C184.723 60.303 183.667 60.4972 182.455 60.4972ZM182.796 58.1818C184.141 58.1818 185.306 57.8835 186.29 57.2869C187.275 56.6903 188.033 55.8996 188.563 54.9148C189.103 53.9205 189.373 52.8267 189.373 51.6335V48.4801C189.183 48.66 188.866 48.821 188.421 48.9631C187.986 49.1051 187.479 49.233 186.901 49.3466C186.333 49.4508 185.765 49.5407 185.197 49.6165C184.629 49.6922 184.117 49.7585 183.663 49.8153C182.432 49.9669 181.38 50.2036 180.509 50.5256C179.638 50.8475 178.97 51.2926 178.506 51.8608C178.042 52.4195 177.81 53.1392 177.81 54.0199C177.81 55.3456 178.284 56.3731 179.231 57.1023C180.178 57.822 181.366 58.1818 182.796 58.1818ZM206.482 60.4545C204.692 60.4545 203.125 59.9811 201.781 59.0341C200.436 58.0871 199.385 56.7661 198.627 55.071C197.879 53.3759 197.505 51.4015 197.505 49.1477C197.505 46.9034 197.879 44.9384 198.627 43.2528C199.385 41.5578 200.441 40.2415 201.795 39.304C203.149 38.357 204.726 37.8835 206.525 37.8835C207.851 37.8835 208.954 38.1203 209.835 38.5938C210.715 39.0578 211.421 39.6354 211.951 40.3267C212.481 41.018 212.893 41.6903 213.187 42.3438H213.414V30.9091H215.957V60H213.485V55.9517H213.187C212.893 56.6146 212.477 57.2964 211.937 57.9972C211.397 58.6884 210.682 59.2708 209.792 59.7443C208.911 60.2178 207.808 60.4545 206.482 60.4545ZM206.781 58.1392C208.192 58.1392 209.394 57.7557 210.388 56.9886C211.383 56.2121 212.14 55.1468 212.661 53.7926C213.192 52.429 213.457 50.8665 213.457 49.1051C213.457 47.3627 213.196 45.8239 212.675 44.4886C212.155 43.1439 211.397 42.0928 210.403 41.3352C209.408 40.5682 208.201 40.1847 206.781 40.1847C205.322 40.1847 204.091 40.5824 203.087 41.3778C202.093 42.1638 201.335 43.2292 200.815 44.5739C200.303 45.9186 200.048 47.429 200.048 49.1051C200.048 50.8002 200.308 52.3295 200.829 53.6932C201.35 55.0568 202.107 56.1411 203.102 56.946C204.105 57.7415 205.332 58.1392 206.781 58.1392ZM231.979 60.4545C229.943 60.4545 228.182 59.9811 226.695 59.0341C225.209 58.0777 224.058 56.7566 223.244 55.071C222.439 53.3759 222.036 51.4252 222.036 49.2188C222.036 47.0218 222.439 45.071 223.244 43.3665C224.058 41.6525 225.18 40.3125 226.61 39.3466C228.049 38.3712 229.711 37.8835 231.596 37.8835C232.78 37.8835 233.921 38.1013 235.019 38.5369C236.118 38.9631 237.103 39.6212 237.974 40.5114C238.854 41.392 239.55 42.5047 240.062 43.8494C240.573 45.1847 240.829 46.7661 240.829 48.5938V49.8438H223.783V47.6136H238.244C238.244 46.2121 237.96 44.9527 237.391 43.8352C236.833 42.7083 236.051 41.8182 235.048 41.1648C234.053 40.5114 232.903 40.1847 231.596 40.1847C230.213 40.1847 228.996 40.554 227.945 41.2926C226.894 42.0312 226.07 43.0066 225.474 44.2188C224.887 45.4309 224.588 46.7566 224.579 48.196V49.5312C224.579 51.2642 224.877 52.7794 225.474 54.0767C226.08 55.3646 226.937 56.3636 228.045 57.0739C229.153 57.7841 230.464 58.1392 231.979 58.1392C233.012 58.1392 233.916 57.9782 234.692 57.6562C235.478 57.3343 236.137 56.9034 236.667 56.3636C237.207 55.8144 237.614 55.2131 237.888 54.5597L240.289 55.3409C239.958 56.2595 239.413 57.107 238.656 57.8835C237.907 58.66 236.97 59.285 235.843 59.7585C234.726 60.2225 233.438 60.4545 231.979 60.4545ZM280.96 40H278.29C278.091 39.0057 277.731 38.0871 277.21 37.2443C276.699 36.392 276.055 35.6487 275.278 35.0142C274.502 34.3797 273.621 33.8873 272.636 33.5369C271.652 33.1866 270.586 33.0114 269.44 33.0114C267.603 33.0114 265.927 33.4896 264.412 34.446C262.906 35.4025 261.699 36.8087 260.79 38.6648C259.89 40.5114 259.44 42.7746 259.44 45.4545C259.44 48.1534 259.89 50.4261 260.79 52.2727C261.699 54.1193 262.906 55.5208 264.412 56.4773C265.927 57.4242 267.603 57.8977 269.44 57.8977C270.586 57.8977 271.652 57.7225 272.636 57.3722C273.621 57.0218 274.502 56.5341 275.278 55.9091C276.055 55.2746 276.699 54.5312 277.21 53.679C277.731 52.8267 278.091 51.9034 278.29 50.9091H280.96C280.723 52.2443 280.278 53.4896 279.625 54.6449C278.981 55.7907 278.157 56.7945 277.153 57.6562C276.159 58.518 275.013 59.1903 273.716 59.6733C272.419 60.1562 270.993 60.3977 269.44 60.3977C266.997 60.3977 264.829 59.7869 262.935 58.5653C261.041 57.3343 259.554 55.6013 258.474 53.3665C257.404 51.1316 256.869 48.4943 256.869 45.4545C256.869 42.4148 257.404 39.7775 258.474 37.5426C259.554 35.3078 261.041 33.5795 262.935 32.358C264.829 31.1269 266.997 30.5114 269.44 30.5114C270.993 30.5114 272.419 30.7528 273.716 31.2358C275.013 31.7093 276.159 32.3816 277.153 33.2528C278.157 34.1146 278.981 35.1184 279.625 36.2642C280.278 37.41 280.723 38.6553 280.96 40ZM289.202 46.3636V60H286.674V30.9091H289.202V41.6051H289.43C289.941 40.4782 290.732 39.5786 291.802 38.9062C292.881 38.2339 294.245 37.8977 295.893 37.8977C297.37 37.8977 298.667 38.2008 299.785 38.8068C300.902 39.4129 301.773 40.3078 302.398 41.4915C303.023 42.6752 303.336 44.1335 303.336 45.8665V60H300.793V46.0227C300.793 44.2235 300.291 42.8078 299.288 41.7756C298.293 40.7339 296.949 40.2131 295.254 40.2131C294.089 40.2131 293.052 40.4593 292.143 40.9517C291.234 41.4441 290.514 42.1544 289.984 43.0824C289.463 44.0009 289.202 45.0947 289.202 46.3636ZM316.088 60.4972C314.772 60.4972 313.569 60.2415 312.48 59.7301C311.391 59.2093 310.525 58.4612 309.881 57.4858C309.237 56.5009 308.915 55.3078 308.915 53.9062C308.915 52.8267 309.118 51.9176 309.526 51.179C309.933 50.4403 310.51 49.8343 311.259 49.3608C312.007 48.8873 312.892 48.5133 313.915 48.2386C314.938 47.964 316.064 47.7509 317.295 47.5994C318.517 47.4479 319.549 47.3153 320.392 47.2017C321.244 47.0881 321.893 46.9081 322.338 46.6619C322.783 46.4157 323.006 46.018 323.006 45.4688V44.9574C323.006 43.4706 322.561 42.3011 321.67 41.4489C320.79 40.5871 319.521 40.1562 317.864 40.1562C316.292 40.1562 315.009 40.5019 314.014 41.1932C313.029 41.8845 312.338 42.6989 311.94 43.6364L309.54 42.7699C310.032 41.5767 310.714 40.625 311.585 39.9148C312.456 39.1951 313.432 38.679 314.511 38.3665C315.591 38.0445 316.685 37.8835 317.793 37.8835C318.626 37.8835 319.492 37.9924 320.392 38.2102C321.301 38.428 322.144 38.8068 322.92 39.3466C323.697 39.8769 324.327 40.6203 324.81 41.5767C325.293 42.5237 325.534 43.7263 325.534 45.1847V60H323.006V56.5483H322.849C322.546 57.1922 322.097 57.8172 321.5 58.4233C320.903 59.0294 320.155 59.5265 319.256 59.9148C318.356 60.303 317.3 60.4972 316.088 60.4972ZM316.429 58.1818C317.774 58.1818 318.938 57.8835 319.923 57.2869C320.908 56.6903 321.666 55.8996 322.196 54.9148C322.736 53.9205 323.006 52.8267 323.006 51.6335V48.4801C322.816 48.66 322.499 48.821 322.054 48.9631C321.618 49.1051 321.112 49.233 320.534 49.3466C319.966 49.4508 319.398 49.5407 318.83 49.6165C318.261 49.6922 317.75 49.7585 317.295 49.8153C316.064 49.9669 315.013 50.2036 314.142 50.5256C313.271 50.8475 312.603 51.2926 312.139 51.8608C311.675 52.4195 311.443 53.1392 311.443 54.0199C311.443 55.3456 311.917 56.3731 312.864 57.1023C313.811 57.822 314.999 58.1818 316.429 58.1818ZM340.854 38.1818V40.3835H330.442V38.1818H340.854ZM333.695 32.9545H336.237V54.304C336.237 55.2131 336.393 55.928 336.706 56.4489C337.018 56.9602 337.426 57.3248 337.928 57.5426C338.429 57.7509 338.964 57.8551 339.533 57.8551C339.864 57.8551 340.148 57.8362 340.385 57.7983C340.622 57.7509 340.83 57.7036 341.01 57.6562L341.55 59.9432C341.304 60.0379 341 60.1231 340.641 60.1989C340.281 60.2841 339.836 60.3267 339.305 60.3267C338.377 60.3267 337.482 60.1231 336.621 59.7159C335.768 59.3087 335.068 58.7027 334.518 57.8977C333.969 57.0928 333.695 56.0938 333.695 54.9006V32.9545Z" fill="white"/>
</svg>
